<svg width="88" height="18" viewBox="0 0 88 18" fill="none" xmlns="http://www.w3.org/2000/svg">
<path d="M55.1768 1.60873V4.19162H53.4935V5.88548H55.1768V11.6408C55.1768 13.6061 56.1011 14.3922 58.4265 14.3922C58.8351 14.3922 59.2243 14.3454 59.5648 14.2892V12.6141C59.2729 12.6422 59.0881 12.6609 58.767 12.6609C57.7259 12.6609 57.2686 12.193 57.2686 11.1261V5.88548H59.5648V4.19162H57.2686V1.60873H55.1768Z" fill="white"/>
<path d="M65.4887 14.5326C68.5827 14.5326 70.48 12.5392 70.48 9.23575C70.48 5.95099 68.573 3.94831 65.4887 3.94831C62.3946 3.94831 60.4876 5.95099 60.4876 9.23575C60.4876 12.5392 62.3849 14.5326 65.4887 14.5326ZM65.4887 12.7451C63.6692 12.7451 62.6476 11.463 62.6476 9.23575C62.6476 7.02719 63.6692 5.73574 65.4887 5.73574C67.2984 5.73574 68.3297 7.02719 68.3297 9.23575C68.3297 11.4537 67.2984 12.7451 65.4887 12.7451Z" fill="white"/>
<path d="M72.1033 14.336H74.1952V8.31864C74.1952 6.88682 75.3141 5.92291 76.9 5.92291C77.2697 5.92291 77.8924 5.98842 78.0676 6.04457V4.06061C77.8438 4.00446 77.4449 3.97638 77.1335 3.97638C75.7519 3.97638 74.5746 4.70633 74.273 5.70767H74.1173V4.14483H72.1033V14.336Z" fill="white"/>
<path d="M83.2617 5.66088C84.8087 5.66088 85.8206 6.69965 85.8692 8.29992H80.5179C80.6346 6.70901 81.7146 5.66088 83.2617 5.66088ZM85.8595 11.5847C85.4703 12.3801 84.6044 12.82 83.3395 12.82C81.666 12.82 80.586 11.6876 80.5179 9.90019V9.78789H88V9.08602C88 5.88548 86.2195 3.94831 83.2714 3.94831C80.2844 3.94831 78.3871 6.01649 78.3871 9.27319C78.3871 12.5299 80.2455 14.5326 83.2811 14.5326C85.7038 14.5326 87.3968 13.4096 87.8735 11.5847H85.8595Z" fill="white"/>
<path d="M41.4585 10.5726C41.6199 13.0751 43.788 14.6755 47.0151 14.6755C50.464 14.6755 52.6221 12.9975 52.6221 10.3204C52.6221 8.21558 51.3918 7.05162 48.4068 6.38235L46.8033 6.00406C44.9074 5.57728 44.141 5.005 44.141 4.00594C44.141 2.74499 45.331 1.92052 47.1159 1.92052C48.8101 1.92052 49.9799 2.72559 50.1917 4.01564H52.3901C52.259 1.65863 50.101 0 47.1462 0C43.9696 0 41.8518 1.65863 41.8518 4.15144C41.8518 6.20775 43.0519 7.42991 45.6839 8.02158L47.5597 8.45807C49.4858 8.89455 50.3329 9.53472 50.3329 10.6017C50.3329 11.8432 49.0017 12.7453 47.1865 12.7453C45.2402 12.7453 43.8889 11.9014 43.6973 10.5726H41.4585Z" fill="white"/>
<path d="M19.7888 3.97638C18.3488 3.97638 17.1034 4.6689 16.4612 5.82933H16.3056V4.14483H14.2915V17.7237H16.3834V12.7919H16.5488C17.1034 13.8681 18.3001 14.5045 19.8082 14.5045C22.4839 14.5045 24.1866 12.4737 24.1866 9.23575C24.1866 5.99778 22.4839 3.97638 19.7888 3.97638ZM19.1953 12.6983C17.4439 12.6983 16.3445 11.3694 16.3445 9.24511C16.3445 7.11142 17.4439 5.78254 19.205 5.78254C20.9758 5.78254 22.0363 7.08334 22.0363 9.23575C22.0363 11.3975 20.9758 12.6983 19.1953 12.6983Z" fill="white"/>
<path d="M31.5064 3.97638C30.0664 3.97638 28.821 4.6689 28.1789 5.82933H28.0232V4.14483H26.0092V17.7237H28.101V12.7919H28.2664C28.821 13.8681 30.0178 14.5045 31.5259 14.5045C34.2015 14.5045 35.9042 12.4737 35.9042 9.23575C35.9042 5.99778 34.2015 3.97638 31.5064 3.97638ZM30.9129 12.6983C29.1616 12.6983 28.0621 11.3694 28.0621 9.24511C28.0621 7.11142 29.1616 5.78254 30.9226 5.78254C32.6934 5.78254 33.754 7.08334 33.754 9.23575C33.754 11.3975 32.6934 12.6983 30.9129 12.6983Z" fill="white"/>
<path d="M10.5383 14.336H12.9384L7.68441 0.339487H5.25404L0 14.336H2.31944L3.66068 10.6211H9.20717L10.5383 14.336ZM6.35325 2.88079H6.52469L8.63235 8.79755H4.2355L6.35325 2.88079Z" fill="white"/>
</svg>
