<svg width="79" height="97" viewBox="0 0 79 97" fill="none" xmlns="http://www.w3.org/2000/svg">
<path d="M65.9139 51.5842C66.0104 44.0962 70.0317 37.011 76.4111 33.089C72.3866 27.3413 65.6458 23.6971 58.6327 23.4777C51.1526 22.6926 43.901 27.9537 40.0892 27.9537C36.2038 27.9537 30.335 23.5557 24.0153 23.6857C15.7779 23.9518 8.09861 28.6352 4.09094 35.8369C-4.52398 50.7522 1.90197 72.6728 10.1543 84.7293C14.2832 90.633 19.1086 97.2276 25.4226 96.9938C31.6011 96.7375 33.9087 93.0539 41.3668 93.0539C48.7557 93.0539 50.9207 96.9938 57.3628 96.8451C63.9927 96.7374 68.1699 90.9151 72.1538 84.9555C75.1204 80.7489 77.4031 76.0997 78.9176 71.1801C71.1262 67.8847 65.923 60.0438 65.9139 51.5842Z" fill="white"/>
<path d="M53.7459 15.5488C57.3608 11.2092 59.1417 5.63146 58.7104 0C53.1877 0.580061 48.0862 3.21959 44.4224 7.39265C40.8398 11.47 38.9753 16.9496 39.3278 22.3658C44.8526 22.4227 50.2839 19.8547 53.7459 15.5488Z" fill="white"/>
</svg>
