<svg width="107" height="10" viewBox="0 0 107 10" fill="none" xmlns="http://www.w3.org/2000/svg">
<path d="M0 0.438561V9.35185H3.34588C6.10735 9.35185 7.70643 7.71497 7.70643 4.86741C7.70643 2.06309 6.09451 0.438561 3.34588 0.438561H0ZM1.43853 1.69865H3.18533C5.10551 1.69865 6.24221 2.87226 6.24221 4.88594C6.24221 6.9305 5.12478 8.09176 3.18533 8.09176H1.43853V1.69865Z" fill="white"/>
<path d="M12.6039 9.48156C14.6461 9.48156 15.8984 8.16588 15.8984 5.98543C15.8984 3.81733 14.6397 2.49547 12.6039 2.49547C10.5617 2.49547 9.30295 3.81733 9.30295 5.98543C9.30295 8.16588 10.5552 9.48156 12.6039 9.48156ZM12.6039 8.30177C11.403 8.30177 10.7286 7.45553 10.7286 5.98543C10.7286 4.52768 11.403 3.67526 12.6039 3.67526C13.7984 3.67526 14.4791 4.52768 14.4791 5.98543C14.4791 7.44936 13.7984 8.30177 12.6039 8.30177Z" fill="white"/>
<path d="M26.5628 2.62519H25.1821L23.9362 7.7582H23.827L22.3885 2.62519H21.0655L19.627 7.7582H19.5243L18.272 2.62519H16.872L18.7986 9.35185H20.2178L21.6564 4.39796H21.7655L23.2105 9.35185H24.6426L26.5628 2.62519Z" fill="white"/>
<path d="M28.1529 9.35185H29.5336V5.41715C29.5336 4.36708 30.1822 3.71232 31.2034 3.71232C32.2245 3.71232 32.7125 4.24972 32.7125 5.33068V9.35185H34.0933V4.99712C34.0933 3.3973 33.2327 2.49547 31.6722 2.49547C30.6189 2.49547 29.9254 2.94639 29.585 3.69379H29.4822V2.62519H28.1529V9.35185Z" fill="white"/>
<path d="M36.2678 9.35185H37.6485V0H36.2678V9.35185Z" fill="white"/>
<path d="M42.8414 9.48156C44.8836 9.48156 46.1359 8.16588 46.1359 5.98543C46.1359 3.81733 44.8771 2.49547 42.8414 2.49547C40.7991 2.49547 39.5404 3.81733 39.5404 5.98543C39.5404 8.16588 40.7927 9.48156 42.8414 9.48156ZM42.8414 8.30177C41.6404 8.30177 40.9661 7.45553 40.9661 5.98543C40.9661 4.52768 41.6404 3.67526 42.8414 3.67526C44.0359 3.67526 44.7166 4.52768 44.7166 5.98543C44.7166 7.44936 44.0359 8.30177 42.8414 8.30177Z" fill="white"/>
<path d="M50.2498 8.34501C49.4984 8.34501 48.9526 7.99293 48.9526 7.38759C48.9526 6.79461 49.3893 6.47958 50.3526 6.41781L52.0608 6.31281V6.8749C52.0608 7.70879 51.2902 8.34501 50.2498 8.34501ZM49.8966 9.46303C50.8149 9.46303 51.5792 9.08006 51.9966 8.40678H52.1058V9.35185H53.4351V4.75622C53.4351 3.33553 52.4461 2.49547 50.6929 2.49547C49.1067 2.49547 47.9764 3.2367 47.8351 4.39179H49.1709C49.325 3.91616 49.8581 3.64438 50.6287 3.64438C51.5727 3.64438 52.0608 4.04588 52.0608 4.75622V5.33685L50.1663 5.44186C48.503 5.54069 47.5654 6.23868 47.5654 7.44936C47.5654 8.67856 48.548 9.46303 49.8966 9.46303Z" fill="white"/>
<path d="M58.1206 9.46303C59.0839 9.46303 59.8995 9.02447 60.317 8.28942H60.4261V9.35185H61.7491V0H60.3684V3.69379H60.2656C59.8867 2.95256 59.0775 2.514 58.1206 2.514C56.3546 2.514 55.2179 3.86057 55.2179 5.98543C55.2179 8.11646 56.3417 9.46303 58.1206 9.46303ZM58.5124 3.70615C59.6684 3.70615 60.394 4.58945 60.394 5.99161C60.394 7.39994 59.6748 8.27089 58.5124 8.27089C57.3436 8.27089 56.6436 7.4123 56.6436 5.98543C56.6436 4.57092 57.35 3.70615 58.5124 3.70615Z" fill="white"/>
<path d="M70.7027 9.48156C72.7449 9.48156 73.9972 8.16588 73.9972 5.98543C73.9972 3.81733 72.7385 2.49547 70.7027 2.49547C68.6605 2.49547 67.4018 3.81733 67.4018 5.98543C67.4018 8.16588 68.6541 9.48156 70.7027 9.48156ZM70.7027 8.30177C69.5018 8.30177 68.8274 7.45553 68.8274 5.98543C68.8274 4.52768 69.5018 3.67526 70.7027 3.67526C71.8972 3.67526 72.5779 4.52768 72.5779 5.98543C72.5779 7.44936 71.8972 8.30177 70.7027 8.30177Z" fill="white"/>
<path d="M75.8249 9.35185H77.2056V5.41715C77.2056 4.36708 77.8543 3.71232 78.8754 3.71232C79.8965 3.71232 80.3845 4.24972 80.3845 5.33068V9.35185H81.7653V4.99712C81.7653 3.3973 80.9047 2.49547 79.3442 2.49547C78.291 2.49547 77.5974 2.94639 77.257 3.69379H77.1543V2.62519H75.8249V9.35185Z" fill="white"/>
<path d="M88.1244 0.951245V2.65607H87.0133V3.77409H88.1244V7.5729C88.1244 8.87005 88.7344 9.38891 90.2693 9.38891C90.539 9.38891 90.7959 9.35802 91.0207 9.32096V8.21529C90.828 8.23383 90.706 8.24618 90.4941 8.24618C89.8069 8.24618 89.5051 7.93733 89.5051 7.23317V3.77409H91.0207V2.65607H89.5051V0.951245H88.1244Z" fill="white"/>
<path d="M92.8741 9.35185H94.2548V5.42333C94.2548 4.40414 94.8842 3.7185 96.0145 3.7185C96.9906 3.7185 97.5108 4.26207 97.5108 5.33685V9.35185H98.8915V5.00948C98.8915 3.40966 97.9732 2.50165 96.4833 2.50165C95.4301 2.50165 94.6915 2.95256 94.3512 3.70615H94.242V0H92.8741V9.35185Z" fill="white"/>
<path d="M103.872 3.62585C104.894 3.62585 105.561 4.31149 105.594 5.36774H102.061C102.139 4.31766 102.851 3.62585 103.872 3.62585ZM105.587 7.53583C105.33 8.06087 104.759 8.35119 103.924 8.35119C102.819 8.35119 102.106 7.60378 102.061 6.42399V6.34987H107V5.8866C107 3.77409 105.825 2.49547 103.879 2.49547C101.907 2.49547 100.655 3.86057 100.655 6.01014C100.655 8.1597 101.882 9.48156 103.885 9.48156C105.484 9.48156 106.602 8.74033 106.916 7.53583H105.587Z" fill="white"/>
</svg>
