<svg width="58" height="10" viewBox="0 0 58 10" fill="none" xmlns="http://www.w3.org/2000/svg">
<path d="M9.15868 5.1661C9.15868 6.41083 8.79031 7.40156 8.05209 8.14127C7.21435 9.0206 6.12113 9.46026 4.77837 9.46026C3.49205 9.46026 2.39735 9.01466 1.49871 8.12344C0.59858 7.23074 0.148517 6.12564 0.148517 4.80664C0.148517 3.48616 0.59858 2.38106 1.49871 1.48985C2.39735 0.597147 3.49205 0.151542 4.77837 0.151542C5.41707 0.151542 6.02755 0.276311 6.60684 0.524365C7.18762 0.773905 7.65253 1.10514 8.0001 1.51955L7.21732 2.30382C6.62764 1.59828 5.81514 1.24625 4.77688 1.24625C3.83814 1.24625 3.02713 1.576 2.34238 2.2355C1.65763 2.89499 1.31601 3.75204 1.31601 4.80516C1.31601 5.85828 1.65763 6.71533 2.34238 7.37482C3.02713 8.03432 3.83814 8.36407 4.77688 8.36407C5.77207 8.36407 6.60239 8.03284 7.26634 7.36888C7.69709 6.93664 7.94663 6.33507 8.01347 5.56418H4.77688V4.49324H9.09481C9.13937 4.72644 9.15868 4.95072 9.15868 5.1661Z" fill="white"/>
<path d="M16.0063 1.44388H11.9483V4.26903H15.6082V5.33997H11.9483V8.16512H16.0063V9.26131H10.8031V0.349177H16.0063V1.44388Z" fill="white"/>
<path d="M20.835 9.26131H19.6898V1.44388H17.2004V0.349177H23.3245V1.44388H20.835V9.26131Z" fill="white"/>
<path d="M27.7552 9.26131V0.349177H28.9004V9.26131H27.7552Z" fill="white"/>
<path d="M33.9791 9.26131H32.8339V1.44388H30.3445V0.349177H36.4686V1.44388H33.9791V9.26131Z" fill="white"/>
<path d="M48.0614 8.11015C47.1851 9.01027 46.0963 9.46033 44.7937 9.46033C43.491 9.46033 42.4022 9.01027 41.5274 8.11015C40.651 7.21002 40.2143 6.10789 40.2143 4.80523C40.2143 3.50257 40.651 2.40044 41.5274 1.50031C42.4022 0.600187 43.491 0.148639 44.7937 0.148639C46.0889 0.148639 47.1762 0.601672 48.0555 1.50625C48.9348 2.41084 49.3745 3.51 49.3745 4.80523C49.3745 6.10789 48.9363 7.21002 48.0614 8.11015ZM42.3725 7.36301C43.032 8.03142 43.8386 8.36414 44.7937 8.36414C45.7487 8.36414 46.5568 8.02994 47.2148 7.36301C47.8743 6.6946 48.2055 5.84201 48.2055 4.80523C48.2055 3.76845 47.8743 2.91586 47.2148 2.24745C46.5568 1.57904 45.7487 1.24632 44.7937 1.24632C43.8386 1.24632 43.032 1.58052 42.3725 2.24745C41.7145 2.91586 41.3833 3.76845 41.3833 4.80523C41.3833 5.84201 41.7145 6.6946 42.3725 7.36301Z" fill="white"/>
<path d="M50.9817 9.26131V0.349177H52.375L56.7062 7.28133H56.7553L56.7062 5.56426V0.349177H57.8515V9.26131H56.6557L52.1239 1.99198H52.0749L52.1239 3.70905V9.26131H50.9817Z" fill="white"/>
<path d="M9.15868 5.1661C9.15868 6.41083 8.79031 7.40156 8.05209 8.14127C7.21435 9.0206 6.12113 9.46026 4.77837 9.46026C3.49205 9.46026 2.39735 9.01466 1.49871 8.12344C0.59858 7.23074 0.148517 6.12564 0.148517 4.80664C0.148517 3.48616 0.59858 2.38106 1.49871 1.48985C2.39735 0.597147 3.49205 0.151542 4.77837 0.151542C5.41707 0.151542 6.02755 0.276311 6.60684 0.524365C7.18762 0.773905 7.65253 1.10514 8.0001 1.51955L7.21732 2.30382C6.62764 1.59828 5.81514 1.24625 4.77688 1.24625C3.83814 1.24625 3.02713 1.576 2.34238 2.2355C1.65763 2.89499 1.31601 3.75204 1.31601 4.80516C1.31601 5.85828 1.65763 6.71533 2.34238 7.37482C3.02713 8.03432 3.83814 8.36407 4.77688 8.36407C5.77207 8.36407 6.60239 8.03284 7.26634 7.36888C7.69709 6.93664 7.94663 6.33507 8.01347 5.56418H4.77688V4.49324H9.09481C9.13937 4.72644 9.15868 4.95072 9.15868 5.1661Z" stroke="white" stroke-width="0.29618" stroke-miterlimit="10"/>
<path d="M16.0063 1.44388H11.9483V4.26903H15.6082V5.33997H11.9483V8.16512H16.0063V9.26131H10.8031V0.349177H16.0063V1.44388Z" stroke="white" stroke-width="0.29618" stroke-miterlimit="10"/>
<path d="M20.835 9.26131H19.6898V1.44388H17.2004V0.349177H23.3245V1.44388H20.835V9.26131Z" stroke="white" stroke-width="0.29618" stroke-miterlimit="10"/>
<path d="M27.7552 9.26131V0.349177H28.9004V9.26131H27.7552Z" stroke="white" stroke-width="0.29618" stroke-miterlimit="10"/>
<path d="M33.9791 9.26131H32.8339V1.44388H30.3445V0.349177H36.4686V1.44388H33.9791V9.26131Z" stroke="white" stroke-width="0.29618" stroke-miterlimit="10"/>
<path d="M48.0614 8.11015C47.1851 9.01027 46.0963 9.46033 44.7937 9.46033C43.491 9.46033 42.4022 9.01027 41.5274 8.11015C40.651 7.21002 40.2143 6.10789 40.2143 4.80523C40.2143 3.50257 40.651 2.40044 41.5274 1.50031C42.4022 0.600187 43.491 0.148639 44.7937 0.148639C46.0889 0.148639 47.1762 0.601672 48.0555 1.50625C48.9348 2.41084 49.3745 3.51 49.3745 4.80523C49.3745 6.10789 48.9363 7.21002 48.0614 8.11015ZM42.3725 7.36301C43.032 8.03142 43.8386 8.36414 44.7937 8.36414C45.7487 8.36414 46.5568 8.02994 47.2148 7.36301C47.8743 6.6946 48.2055 5.84201 48.2055 4.80523C48.2055 3.76845 47.8743 2.91586 47.2148 2.24745C46.5568 1.57904 45.7487 1.24632 44.7937 1.24632C43.8386 1.24632 43.032 1.58052 42.3725 2.24745C41.7145 2.91586 41.3833 3.76845 41.3833 4.80523C41.3833 5.84201 41.7145 6.6946 42.3725 7.36301Z" stroke="white" stroke-width="0.29618" stroke-miterlimit="10"/>
<path d="M50.9817 9.26131V0.349177H52.375L56.7062 7.28133H56.7553L56.7062 5.56426V0.349177H57.8515V9.26131H56.6557L52.1239 1.99198H52.0749L52.1239 3.70905V9.26131H50.9817Z" stroke="white" stroke-width="0.29618" stroke-miterlimit="10"/>
</svg>
