<svg width="335" height="68" viewBox="0 0 335 68" fill="none" xmlns="http://www.w3.org/2000/svg">
<path d="M107.064 18.5883C97.7703 18.5883 90.195 25.6577 90.195 35.3944C90.195 45.0718 97.7703 52.2005 107.064 52.2005C116.362 52.2005 123.938 45.0718 123.938 35.3944C123.934 25.6577 116.359 18.5883 107.064 18.5883ZM107.064 45.5856C101.971 45.5856 97.5806 41.385 97.5806 35.3984C97.5806 29.3485 101.975 25.2111 107.064 25.2111C112.158 25.2111 116.548 29.3485 116.548 35.3984C116.548 41.3811 112.158 45.5856 107.064 45.5856ZM70.2593 18.5883C60.9651 18.5883 53.3899 25.6577 53.3899 35.3944C53.3899 45.0718 60.9651 52.2005 70.2593 52.2005C79.5574 52.2005 87.1326 45.0718 87.1326 35.3944C87.1326 25.6577 79.5574 18.5883 70.2593 18.5883ZM70.2593 45.5856C65.1657 45.5856 60.7754 41.385 60.7754 35.3984C60.7754 29.3485 65.1696 25.2111 70.2593 25.2111C75.3529 25.2111 79.7431 29.3485 79.7431 35.3984C79.747 41.3811 75.3529 45.5856 70.2593 45.5856ZM26.4836 23.7491V30.8777H43.5465C43.0368 34.8886 41.7011 37.8167 39.6621 39.8518C37.1805 42.3334 33.2961 45.0718 26.4836 45.0718C15.9802 45.0718 7.76882 36.6036 7.76882 26.1003C7.76882 15.5969 15.9802 7.12867 26.4836 7.12867C32.1501 7.12867 36.2875 9.35736 39.342 12.2223L44.3724 7.1919C40.1047 3.11781 34.4421 3.4972e-06 26.4836 3.4972e-06C12.0958 3.4972e-06 -7.23558e-07 11.7125 -7.23558e-07 26.1003C-7.23558e-07 40.488 12.0958 52.2005 26.4836 52.2005C34.2484 52.2005 40.1086 49.6517 44.6885 44.8782C49.3988 40.1679 50.8649 33.545 50.8649 28.1985C50.8649 26.5468 50.7384 25.0175 50.4816 23.7451H26.4836V23.7491ZM205.522 29.2852C204.123 25.5312 199.856 18.5883 191.134 18.5883C182.477 18.5883 175.281 25.4008 175.281 35.3944C175.281 44.815 182.413 52.2005 191.96 52.2005C199.662 52.2005 204.119 47.4902 205.969 44.7518L200.239 40.9306C198.33 43.7322 195.718 45.5776 191.96 45.5776C188.206 45.5776 185.531 43.8587 183.812 40.484L206.285 31.1899L205.522 29.2852ZM182.603 34.8886C182.413 28.3922 187.633 25.0847 191.391 25.0847C194.319 25.0847 196.801 26.5507 197.631 28.649L182.603 34.8886ZM164.335 51.185H171.716V1.78612H164.335V51.185ZM152.235 22.3462H151.982C150.326 20.3704 147.141 18.5883 143.134 18.5883C134.729 18.5883 127.028 25.9738 127.028 35.4616C127.028 44.8822 134.729 52.2045 143.134 52.2045C147.145 52.2045 150.326 50.4223 151.982 48.3872H152.235V50.8056C152.235 57.2348 148.797 60.6727 143.261 60.6727C138.74 60.6727 135.939 57.4285 134.793 54.69L128.363 57.3652C130.209 61.8187 135.109 67.2956 143.261 67.2956C151.919 67.2956 159.241 62.202 159.241 49.7861V19.6117H152.239V22.3462H152.235ZM143.771 45.5856C138.677 45.5856 134.413 41.3178 134.413 35.4616C134.413 29.5381 138.677 25.2111 143.771 25.2111C148.797 25.2111 152.745 29.5381 152.745 35.4616C152.745 41.3178 148.797 45.5856 143.771 45.5856ZM240.114 1.78612H222.447V51.185H229.817V32.4702H240.11C248.282 32.4702 256.32 26.5547 256.32 17.1301C256.32 7.7056 248.286 1.78612 240.114 1.78612ZM240.304 25.5944H229.817V8.66189H240.304C245.817 8.66189 248.946 13.226 248.946 17.1301C248.946 20.9553 245.817 25.5944 240.304 25.5944ZM285.874 18.5013C280.535 18.5013 275.007 20.8525 272.719 26.0647L279.263 28.7952C280.662 26.0647 283.27 25.1716 286 25.1716C289.814 25.1716 293.69 27.4596 293.753 31.5258V32.0355C292.418 31.2729 289.557 30.1309 286.064 30.1309C279.01 30.1309 271.826 34.0074 271.826 41.2507C271.826 47.8617 277.611 52.1175 284.092 52.1175C289.047 52.1175 291.781 49.8928 293.496 47.2847H293.749V51.098H300.87V32.1581C300.874 23.3934 294.322 18.5013 285.874 18.5013ZM284.981 45.5737C282.57 45.5737 279.2 44.3645 279.2 41.3771C279.2 37.5638 283.396 36.1017 287.02 36.1017C290.256 36.1017 291.785 36.8012 293.753 37.7535C293.18 42.3334 289.241 45.5737 284.981 45.5737ZM326.8 19.5801L318.348 40.9978H318.095L309.323 19.5801H301.38L314.535 49.5134L307.035 66.1654H314.724L335 19.5801H326.8ZM260.39 51.185H267.76V1.78612H260.39V51.185Z" fill="white"/>
</svg>
