<svg width="91" height="91" viewBox="0 0 91 91" fill="none" xmlns="http://www.w3.org/2000/svg">
<g clip-path="url(#clip0_594_2185)">
<path d="M91 45.5C91 20.3712 70.6288 0 45.5 0C20.3712 0 0 20.3712 0 45.5C0 68.2102 16.6388 87.034 38.3906 90.4473V58.6523H26.8379V45.5H38.3906V35.4758C38.3906 24.0723 45.1836 17.7734 55.5768 17.7734C60.5548 17.7734 65.7617 18.6621 65.7617 18.6621V29.8594H60.0245C54.3721 29.8594 52.6094 33.3668 52.6094 36.9652V45.5H65.2285L63.2112 58.6523H52.6094V90.4473C74.3612 87.034 91 68.2106 91 45.5Z" fill="#1877F2"/>
<path d="M63.2113 58.652L65.2286 45.4997H52.6094V36.9649C52.6094 33.3661 54.3722 29.8591 60.0245 29.8591H65.7618V18.6618C65.7618 18.6618 60.5549 17.7731 55.5765 17.7731C45.1837 17.7731 38.3907 24.072 38.3907 35.4755V45.4997H26.838V58.652H38.3907V90.4469C40.7425 90.8155 43.1195 91.0003 45.5001 90.9997C47.8806 91.0004 50.2576 90.8156 52.6094 90.4469V58.652H63.2113Z" fill="white"/>
</g>
<defs>
<clipPath id="clip0_594_2185">
<rect width="90.6166" height="90.6166" fill="white" transform="scale(1.00423)"/>
</clipPath>
</defs>
</svg>
