<svg width="91" height="91" viewBox="0 0 91 91" fill="none" xmlns="http://www.w3.org/2000/svg">
<g clip-path="url(#clip0_594_2196)">
<path d="M69.6719 0H21.3281C9.54893 0 0 9.54893 0 21.3281V69.6719C0 81.4511 9.54893 91 21.3281 91H69.6719C81.4511 91 91 81.4511 91 69.6719V21.3281C91 9.54893 81.4511 0 69.6719 0Z" fill="white"/>
<path d="M69.6719 0H21.3281C9.54893 0 0 9.54893 0 21.3281V69.6719C0 81.4511 9.54893 91 21.3281 91H69.6719C81.4511 91 91 81.4511 91 69.6719V21.3281C91 9.54893 81.4511 0 69.6719 0Z" fill="#1D9BF0"/>
<path d="M70.9415 32.4941C70.9806 33.0582 70.9806 33.6223 70.9806 34.1918C70.9806 51.5376 57.7757 71.5427 33.6298 71.5427V71.532C26.4966 71.5423 19.5113 69.4994 13.5077 65.6472C14.545 65.772 15.5872 65.8342 16.6323 65.8367C22.5445 65.8414 28.2866 63.8584 32.9359 60.2064C30.1966 60.1547 27.5419 59.2482 25.343 57.6138C23.1441 55.9793 21.511 53.6986 20.6719 51.0904C22.6386 51.4696 24.6661 51.3923 26.5982 50.8644C20.4742 49.627 16.0682 44.2462 16.0682 37.9971V37.8307C17.8938 38.8476 19.937 39.4111 22.0258 39.4737C16.258 35.6187 14.4799 27.9452 17.9628 21.9455C21.2585 26.0011 25.3704 29.318 30.0315 31.6808C34.6926 34.0436 39.7987 35.3994 45.0179 35.6602C44.4975 33.4202 44.5744 31.0828 45.2408 28.8818C45.9072 26.6808 47.1398 24.6934 48.8154 23.1182C54.1026 18.1481 62.4181 18.4029 67.3883 23.6873C70.328 23.1069 73.1472 22.0292 75.7244 20.5006C74.7444 23.5401 72.6936 26.1201 69.9537 27.7607C72.556 27.4541 75.0972 26.7575 77.4921 25.6943C75.7304 28.3326 73.5122 30.635 70.9415 32.4941Z" fill="white"/>
</g>
<defs>
<clipPath id="clip0_594_2196">
<rect width="90.6166" height="90.6166" fill="white" transform="scale(1.00423)"/>
</clipPath>
</defs>
</svg>
